<?xml version="1.0" encoding="UTF-8" standalone="no"?>
<!-- Created with Inkscape (http://www.inkscape.org/) -->

<svg
   version="1.1"
   id="svg1"
   width="412.16"
   height="51.502838"
   viewBox="0 0 412.16 51.502838"
   sodipodi:docname="logo.png"
   xmlns:inkscape="http://www.inkscape.org/namespaces/inkscape"
   xmlns:sodipodi="http://sodipodi.sourceforge.net/DTD/sodipodi-0.dtd"
   xmlns="http://www.w3.org/2000/svg"
   xmlns:svg="http://www.w3.org/2000/svg">
  <defs
     id="defs1">
    <linearGradient
       id="swatch9"
       inkscape:swatch="solid">
      <stop
         style="stop-color:#000000;stop-opacity:1;"
         offset="0"
         id="stop10" />
    </linearGradient>
    <linearGradient
       id="swatch8"
       inkscape:swatch="solid">
      <stop
         style="stop-color:#000000;stop-opacity:1;"
         offset="0"
         id="stop9" />
    </linearGradient>
  </defs>
  <sodipodi:namedview
     id="namedview1"
     pagecolor="#ffffff"
     bordercolor="#000000"
     borderopacity="0.25"
     inkscape:showpageshadow="2"
     inkscape:pageopacity="0.0"
     inkscape:pagecheckerboard="0"
     inkscape:deskcolor="#d1d1d1" />
  <g
     inkscape:groupmode="layer"
     inkscape:label="Image"
     id="g1"
     transform="translate(0.19440462,151.17217)">
    <path
       style="fill:#000000;fill-opacity:0.977401"
       d="m 334.22764,-100.15361 c -1.87938,-0.81545 -2.06129,-1.09035 -1.2752,-1.9271 l 0.68814,-0.7325 1.15778,0.62053 c 1.39394,0.7471 2.39201,0.79005 3.05079,0.13126 0.78019,-0.78018 0.26028,-1.3943 -1.65074,-1.94985 -3.2528,-0.94562 -4.24276,-3.04016 -2.33742,-4.9455 0.8115,-0.81149 1.17312,-0.93538 2.73028,-0.93538 0.98719,0 2.31725,0.21825 2.95569,0.48501 l 1.16079,0.48501 -0.72011,0.76652 c -0.68947,0.73391 -0.76883,0.74618 -1.86496,0.28818 -0.8779,-0.36681 -1.32414,-0.39666 -1.91375,-0.12801 -1.30509,0.59464 -0.7607,1.36687 1.51635,2.15097 2.26956,0.78152 3.20033,1.64139 3.20033,2.95656 0,2.54597 -3.67469,4.046083 -6.69797,2.7343 z m 33.33797,0.275621 c -0.78948,-0.152061 -0.88378,-0.470211 -0.4047,-1.365381 0.25037,-0.46783 0.57034,-0.55494 1.55387,-0.42302 1.41107,0.18927 2.45859,-0.24903 2.68753,-1.12449 0.14081,-0.53847 -1.5e-4,-0.58394 -1.39483,-0.44992 -1.91577,0.18408 -2.95461,-0.41374 -3.47876,-2.00192 -0.31621,-0.95813 -0.28354,-1.31742 0.21144,-2.32516 1.22191,-2.48771 4.77885,-2.55256 6.41502,-0.11695 0.53582,0.79763 0.73043,1.54702 0.73043,2.81275 0,3.89778 -2.35405,5.757966 -6.32,4.994091 z m 3.36,-5.095861 c 0.396,-0.10612 0.72,-0.43211 0.72,-0.72442 0,-0.8182 -0.92726,-1.95388 -1.59529,-1.95388 -0.69839,0 -1.60471,0.81329 -1.60471,1.44 0,0.53614 0.87212,1.44154 1.38286,1.43563 0.20742,-0.002 0.70114,-0.0912 1.09714,-0.19733 z m 14.64,5.102672 c -0.352,-0.09785 -0.89535,-0.356512 -1.20745,-0.574792 -0.54206,-0.37912 -0.5411,-0.42942 0.0214,-1.12413 0.50681,-0.62589 0.68832,-0.67404 1.30224,-0.34548 0.96353,0.51567 2.6192,0.31124 3.04986,-0.37657 0.49646,-0.79289 -0.1183,-1.65288 -1.27837,-1.78832 -1.79953,-0.2101 -1.89186,-0.69069 -0.3867,-2.01297 l 1.37898,-1.21143 -2.02126,-0.0136 c -2.01344,-0.0136 -2.02086,-0.017 -1.92,-0.89364 l 0.10126,-0.88 3.28,-0.0912 c 3.25105,-0.0904 3.28,-0.0846 3.28,0.65723 0,0.43506 -0.46837,1.20238 -1.11865,1.83266 l -1.11866,1.08424 0.9039,0.38006 c 1.13884,0.47885 1.87263,2.10926 1.46464,3.25428 -0.44286,1.24288 -1.80015,2.079606 -3.54739,2.186852 -0.84911,0.05212 -1.83184,0.0147 -2.18384,-0.08315 z m -61.92,-5.060972 v -4.96 h 3.68 3.68 v 1.12 1.12 h -2.58126 -2.58125 l 0.10125,0.88 c 0.0959,0.83306 0.1994,0.88511 1.94126,0.97596 1.70227,0.0888 1.84,0.15346 1.84,0.86404 0,0.71057 -0.13773,0.77524 -1.84,0.86403 -1.81912,0.0949 -1.84114,0.10777 -1.94028,1.13597 l -0.10027,1.04 h 2.74027 2.74028 v 0.96 0.959996 h -3.84 -3.84 z m 21.44,1.12 v -3.84 h -1.76 -1.76 v -1.12856 -1.12855 l 4.72,0.0885 4.72,0.0886 v 0.96 c 0,0.93247 -0.0482,0.96277 -1.68,1.05672 l -1.68,0.0967 v 3.82328 3.823273 h -1.28 -1.28 z m 5.12,2.72 c 0,-1.09334 0.0305,-1.12 1.28,-1.12 1.24952,0 1.28,0.0267 1.28,1.12 0,1.093329 -0.0305,1.119996 -1.28,1.119996 -1.24953,0 -1.28,-0.02667 -1.28,-1.119996 z m 8.32,0.34125 c 0,-0.61166 0.18881,-0.80047 0.88,-0.88 0.86622,-0.0997 0.88146,-0.14009 0.97346,-2.58125 0.0961,-2.54973 -0.0853,-2.88031 -1.19504,-2.17816 -0.4679,0.29604 -1.26642,-0.39701 -1.28824,-1.11808 -0.015,-0.49472 2.73442,-1.74376 3.83838,-1.74376 h 0.95144 v 3.84 3.84 h 0.8 c 0.64,0 0.8,0.16 0.8,0.8 0,0.79407 -0.0213,0.799996 -2.88,0.799996 -2.83771,0 -2.88,-0.01144 -2.88,-0.778746 z m 18.26775,-0.10125 c 0.18256,-0.484 0.96606,-2.14 1.74113,-3.68 l 1.40921,-2.8 h -2.22905 -2.22904 v -0.96 -0.96 h 3.52 3.52 v 0.81507 c 0,0.44829 -0.5592,1.85229 -1.24267,3.12 -0.68346,1.26771 -1.49502,2.98893 -1.80347,3.82493 -0.53573,1.45202 -0.61575,1.519996 -1.78941,1.519996 -1.20743,0 -1.22289,-0.01517 -0.8967,-0.879996 z m -376.68355022,-3.424 c -0.1867161,-0.18659 -0.3042144,-9.30173 -0.3042144,-23.60001 v -23.296 H 205.8856 411.96561 v 23.52 23.52001 h -8.16 c -7.04,0 -8.16,-0.0659 -8.16,-0.48 0,-0.41305 1.04889,-0.48 7.52,-0.48 h 7.52 v -22.56001 -22.56 H 205.7256 0.76559538 v 22.60337 22.60336 l 22.12439862,-0.23796 c 12.16842,-0.13088 83.808426,-0.13051 159.200006,8.3e-4 128.86007,0.22448 137.07561,0.27149 137.07561,0.78436 0,0.5134 -9.39717,0.54381 -159.37579,0.51581 C 59.600111,-103.9611 0.30105068,-104.08505 0.10980978,-104.27615 Z M 17.725596,-115.12972 c -6.50156,-1.41826 -10.4959379,-7.57742 -9.3286683,-14.38441 1.0979585,-6.4028 5.9924543,-10.43237 12.6886683,-10.4464 3.522232,-0.007 6.445595,1.09593 8.722055,3.29182 l 1.362056,1.31384 -1.814618,1.83375 -1.814618,1.83376 -1.554157,-1.39732 c -4.229723,-3.80289 -10.454974,-1.8538 -11.784854,3.68976 -1.0159,4.23475 1.336799,8.42063 5.198329,9.24878 2.701209,0.57931 4.942464,-0.0319 7.116635,-1.94089 l 1.119467,-0.9829 1.764853,1.50776 c 0.970668,0.82927 1.764852,1.65084 1.764852,1.82573 0,0.59821 -2.398417,2.51949 -4.32,3.46058 -3.116764,1.52644 -5.819532,1.86611 -9.12,1.14614 z m 24.696414,0.0952 c -3.747789,-0.73754 -7.36083,-3.53808 -8.956199,-6.94215 -0.77048,-1.64398 -0.860215,-2.20317 -0.860215,-5.3605 0,-3.3353 0.0564,-3.63971 1.047716,-5.65495 1.301893,-2.6466 3.827434,-5.04429 6.393353,-6.06971 1.503372,-0.60079 2.453345,-0.73629 5.20604,-0.74259 3.169698,-0.007 3.492729,0.0541 5.509736,1.0473 6.616207,3.25772 9.084542,10.9149 5.616161,17.42225 -2.591132,4.86146 -8.261332,7.42113 -13.956592,6.30035 z m 4.743586,-5.09281 c 2.909022,-0.80943 4.859755,-3.73839 4.851349,-7.28415 -0.01101,-4.64359 -2.55064,-7.46302 -6.740444,-7.48306 -4.323843,-0.0207 -7.048534,2.84122 -7.063877,7.41959 -0.0177,5.2831 4.132291,8.68897 8.952972,7.34762 z m 84.670184,5.11618 c -1.95477,-0.35136 -5.23894,-1.94327 -6.26728,-3.03788 l -0.77455,-0.82448 1.78099,-1.78099 1.78098,-1.78098 1.61905,1.16316 c 2.13518,1.53398 4.55594,2.06869 6.20574,1.37077 0.64631,-0.27341 1.41943,-0.86999 1.71804,-1.32573 1.12676,-1.71965 -0.50506,-3.3459 -4.34355,-4.32873 -6.34479,-1.62456 -8.78296,-5.40397 -6.56269,-10.17287 1.37943,-2.96289 4.5003,-4.41539 8.97309,-4.17623 2.714,0.14512 5.96634,1.30661 7.0683,2.52426 0.51573,0.56988 0.4743,0.67331 -0.85087,2.12389 -0.76616,0.83866 -1.48359,1.5652 -1.5943,1.61453 -0.11071,0.0493 -1.03082,-0.34667 -2.0447,-0.88 -2.06531,-1.08641 -3.83298,-1.2475 -5.30968,-0.48387 -1.02619,0.53066 -1.54984,1.86653 -1.052,2.68371 0.43696,0.71724 2.74495,1.81529 5.40198,2.57005 2.60745,0.74068 3.9995,1.60048 5.39157,3.33012 0.92846,1.15361 0.9897,1.39449 0.9897,3.89244 0,2.44936 -0.078,2.77392 -0.97346,4.05029 -1.95139,2.78148 -6.72388,4.26526 -11.15636,3.46854 z m 31.16982,-0.11694 c -3.87616,-0.84204 -6.89417,-3.25235 -8.58238,-6.85425 -0.76263,-1.62712 -0.85649,-2.20193 -0.84746,-5.18978 0.0135,-4.47655 0.75285,-6.41901 3.48184,-9.148 2.74755,-2.74755 4.68264,-3.48047 9.148,-3.46483 4.10152,0.0144 6.20456,0.72393 8.64271,2.91603 l 1.63366,1.46881 -1.05818,1.10183 c -0.582,0.606 -1.46516,1.39492 -1.96256,1.75314 l -0.90438,0.65131 -1.01562,-0.96332 c -2.00924,-1.90577 -4.2536,-2.54027 -6.94431,-1.96321 -2.10236,0.45087 -4.43225,2.59825 -5.04017,4.64537 -0.94239,3.17335 -0.30312,6.06248 1.80499,8.15758 2.74783,2.73088 6.70664,2.82982 9.97134,0.24923 l 1.60757,-1.27071 1.74844,1.53338 c 0.96164,0.84337 1.75025,1.62305 1.75248,1.73263 0.0102,0.50309 -3.09436,2.97615 -4.60333,3.66698 -2.99141,1.36951 -5.66635,1.66564 -8.83264,0.97781 z m 24.32,0.0178 c -6.83886,-1.56735 -11.14485,-8.4311 -9.49176,-15.12987 1.02262,-4.14392 3.26978,-6.88587 7.11412,-8.68049 1.69787,-0.79261 2.25136,-0.88535 5.25764,-0.88099 4.16901,0.006 6.21427,0.72194 8.79122,3.07713 2.51293,2.29667 3.81181,5.05088 3.96554,8.40869 0.15324,3.34703 -0.35698,5.47346 -1.87795,7.82669 -2.81437,4.35437 -8.51123,6.58149 -13.75881,5.37884 z m 6.10107,-5.58187 c 1.30468,-0.66143 1.97465,-1.27152 2.69738,-2.45632 0.87333,-1.43168 0.96101,-1.82806 0.9556,-4.32 -0.006,-2.97888 -0.35458,-3.97045 -1.96433,-5.59513 -1.26905,-1.28082 -2.78142,-1.84129 -4.94062,-1.83097 -3.45317,0.0165 -5.9627,2.14341 -6.69584,5.67489 -0.80607,3.88284 1.0951,7.77108 4.37067,8.93879 1.94896,0.69478 3.64164,0.56996 5.57714,-0.41126 z m 86.69894,5.5841 c -2.14517,-0.49047 -4.28669,-1.50435 -5.6902,-2.69396 l -1.0502,-0.89014 1.6902,-1.87391 1.6902,-1.87391 1.69662,1.14346 c 1.70392,1.14837 3.43484,1.79925 4.79365,1.80257 1.11783,0.003 2.85792,-0.82875 3.24397,-1.55008 0.99029,-1.85037 -0.17567,-3.23685 -3.54012,-4.20967 -5.02422,-1.45275 -7.22791,-3.06152 -7.97031,-5.81859 -0.92561,-3.43745 1.42433,-7.28998 5.11427,-8.38438 2.17557,-0.64525 5.49196,-0.66213 7.59147,-0.0386 1.61045,0.47826 4.27045,2.15644 4.27045,2.69421 0,0.15787 -0.61996,0.97179 -1.37768,1.80872 l -1.37768,1.5217 -2.1385,-1.05279 c -1.77891,-0.87575 -2.38761,-1.0247 -3.61999,-0.88579 -2.0059,0.22609 -3.27241,1.43131 -2.82902,2.6921 0.39139,1.11291 1.72449,1.88334 4.67228,2.70021 4.69234,1.30031 6.9679,3.2842 7.44931,6.49448 0.50253,3.35111 -1.71277,6.81664 -5.10998,7.99385 -2.11861,0.73414 -5.34655,0.91494 -7.50874,0.42057 z m 45.44,-0.01 c -6.63603,-1.54874 -10.79396,-7.71765 -9.65977,-14.33172 1.0378,-6.05198 5.52004,-10.05523 11.68927,-10.44012 5.68204,-0.35449 10.37087,2.32768 12.62397,7.22132 1.16601,2.53252 1.37113,6.7853 0.45289,9.38976 -2.17451,6.16774 -8.65213,9.66708 -15.10636,8.16076 z m 6.56658,-5.80141 c 3.88178,-2.27488 4.52722,-8.85014 1.18728,-12.09506 -1.49973,-1.45706 -2.63165,-1.88813 -4.9337,-1.87888 -3.22736,0.013 -5.55585,1.80996 -6.52714,5.03731 -0.57937,1.92509 -0.57021,2.81279 0.0506,4.90316 0.61005,2.05427 2.34705,4.01896 4.13642,4.67863 1.78261,0.65718 4.32395,0.38781 6.08658,-0.64516 z m -270.566593,-6.43756 v -12.02447 l 6.16,0.10447 c 5.587218,0.0948 6.27902,0.16869 7.44,0.79516 2.695728,1.45462 4.004653,3.66373 3.992972,6.73903 -0.0089,2.34129 -0.776677,4.05299 -2.525096,5.62944 l -1.352156,1.21917 2.58214,4.56254 c 1.420177,2.5094 2.58214,4.66618 2.58214,4.79284 0,0.12667 -1.332,0.1889 -2.96,0.13829 l -2.96,-0.092 -2.260824,-4.32 -2.260824,-4.32 h -1.579176 -1.579176 l -0.08903,4.4 -0.08903,4.4 h -2.550969 -2.55097 z m 11.014851,-2.03191 c 1.072049,-1.00714 1.349409,-2.54041 0.690157,-3.81526 -0.714136,-1.38099 -1.389556,-1.64837 -4.163971,-1.64837 h -2.421037 v 2.98667 c 0,1.64267 0.108,3.09595 0.24,3.22951 0.132,0.13357 1.274888,0.19123 2.53975,0.12814 1.891071,-0.0943 2.444644,-0.25083 3.115101,-0.88069 z m 16.50515,4.45637 v -9.6 h -4.000001 -4 v -2.4 -2.4 H 91.805598 102.5256 v 2.4 2.4 h -3.840004 -3.839998 v 9.6 9.60001 h -2.88 -2.88 z m 16.320002,-2.4 v -12 h 8.48 8.48 v 2.4 2.4 h -5.6 -5.6 v 2.24 2.24 h 4.32 4.32 v 2.4 2.4 h -4.32 -4.32 v 2.56 2.56001 h 5.92 5.92 v 2.4 2.4 h -8.8 -8.8 z m 101.12,-0.0125 v -12.01245 l 2.76818,0.0925 2.76818,0.0925 5.15182,7.51661 5.15183,7.51662 0.0858,-7.59662 0.0858,-7.59661 h 2.71421 2.71421 v 12.01346 12.01346 l -2.47287,-0.0935 -2.47287,-0.0935 -5.18055,-7.47743 c -2.84931,-4.11258 -5.33652,-7.63338 -5.52714,-7.824 -0.24877,-0.24877 -0.34658,1.88402 -0.34658,7.55743 v 7.904 h -2.72 -2.72 z m 32.32001,0.0125 v -12 h 2.71121 2.71121 l 0.0888,4.56 0.0888,4.56 5.36,0.0877 5.36,0.0877 v -4.64773 -4.64774 h 2.72 2.72 v 12 12 h -2.72 -2.72 v -4.96 -4.96 h -5.44 -5.44 v 4.96 4.96 h -2.72 -2.72 z m 26.24,0.0125 v -12.01245 h 2.88389 2.8839 l -0.0839,11.92 -0.0839,11.92 -2.8,0.0925 -2.8,0.0925 z m 36.8,2.38755 v -9.6 h -4 -4 v -2.4 -2.4 h 10.72 10.72 v 2.4 2.4 h -4 -4 v 9.6 9.6 h -2.72 -2.72 z m 42.88,-2.4 v -12 h 5.54914 c 6.08429,0 7.77291,0.30592 9.66824,1.75156 1.73563,1.32383 2.52361,3.12498 2.52361,5.76844 0,2.63629 -0.7774,4.41919 -2.54021,5.82574 -0.61642,0.49184 -1.12077,1.02221 -1.12077,1.1786 -10e-6,0.15639 1.15199,2.29559 2.55999,4.75376 1.408,2.45818 2.56,4.52622 2.56,4.59565 0,0.0694 -1.35801,0.12625 -3.0178,0.12625 h -3.01779 l -2.27319,-4.48 -2.27319,-4.48 h -1.58902 -1.58901 v 4.48 4.48 h -2.72 -2.72 z m 10.38452,-1.57291 c 1.30659,-0.54593 1.77886,-1.33944 1.7653,-2.96606 -0.0184,-2.212 -1.16611,-2.98103 -4.44878,-2.98103 h -2.26104 v 3.2 3.2 h 1.93028 c 1.06165,0 2.41806,-0.20381 3.01424,-0.45291 z m 11.69548,1.57291 v -12 h 2.72 2.72 v 12 12 h -2.72 -2.72 z m 8.13053,11.44 c 0.10945,-0.308 2.16966,-5.708 4.57825,-12 l 4.37925,-11.44 h 3.09189 3.09189 l 3.70528,9.84 c 2.03791,5.412 4.07448,10.81722 4.52572,12.0116 l 0.82043,2.17161 -3.09529,-0.0916 -3.0953,-0.0916 -0.85296,-2.56 -0.85297,-2.56 -4.46468,-0.0884 -4.46468,-0.0884 -0.88853,2.72837 -0.88853,2.72836 h -2.89438 c -2.61904,0 -2.87546,-0.0533 -2.69539,-0.56 z m 14.66485,-9.22205 c 0.10012,-0.10012 -0.46734,-2.12466 -1.26102,-4.49898 -0.79369,-2.37431 -1.49027,-4.26973 -1.54797,-4.21203 -0.15727,0.15726 -3.02639,8.34916 -3.02639,8.64092 0,0.28503 5.55373,0.35174 5.83538,0.0701 z"
       id="path10"
       inkscape:export-filename="logoblanco.png"
       inkscape:export-xdpi="96"
       inkscape:export-ydpi="96" />
  </g>
</svg>
